PathFileType	4	(X/Y/Z)	E:\Studenten\Marcel_BSc\Ayumi_25_09_2024\25-09-2024\sumo_dl_80kg01.trc
DataRate	CameraRate	NumFrames	NumMarkers	Units	OrigDataRate	OrigDataStartFrame	OrigNumFrames
200.0	200.0	4	52	mm	200.0	1044	2782	
Frame#	Time	RSACR			LSACR			USACR			LBAR			RBAR			RHEE			RMT1			RMT5			RMT2			LHEE			LMT1			LMT5			LMT2			LMMAL			LLMAL			LTIB4			LTIB2			LTIB3			LTIB1			RMMAL			RLMAL			RTIB1			RTIB2			RTIB3			RTHI1			RTHI4			RTHI3			RTHI2			LTHI1			LTHI4			LTHI3			LTHI2			FHD			LBHD			RBHD			C7			T10			CLAV			LSHO			RSHO			LRAD			LUL			LRFIN			RRAD			RUL			RUFIN			LDUPA			LMUPA			LUUPA			RDUPA			RUUPA			RMUPA			
		X1	Y1	Z1	X2	Y2	Z2	X3	Y3	Z3	X4	Y4	Z4	X5	Y5	Z5	X6	Y6	Z6	X7	Y7	Z7	X8	Y8	Z8	X9	Y9	Z9	X10	Y10	Z10	X11	Y11	Z11	X12	Y12	Z12	X13	Y13	Z13	X14	Y14	Z14	X15	Y15	Z15	X16	Y16	Z16	X17	Y17	Z17	X18	Y18	Z18	X19	Y19	Z19	X20	Y20	Z20	X21	Y21	Z21	X22	Y22	Z22	X23	Y23	Z23	X24	Y24	Z24	X25	Y25	Z25	X26	Y26	Z26	X27	Y27	Z27	X28	Y28	Z28	X29	Y29	Z29	X30	Y30	Z30	X31	Y31	Z31	X32	Y32	Z32	X33	Y33	Z33	X34	Y34	Z34	X35	Y35	Z35	X36	Y36	Z36	X37	Y37	Z37	X38	Y38	Z38	X39	Y39	Z39	X40	Y40	Z40	X41	Y41	Z41	X42	Y42	Z42	X43	Y43	Z43	X44	Y44	Z44	X45	Y45	Z45	X46	Y46	Z46	X47	Y47	Z47	X48	Y48	Z48	X49	Y49	Z49	X50	Y50	Z50	X51	Y51	Z51	X52	Y52	Z52	
1044	5.215	452.54626	664.85889	-964.26672	454.07635	667.76245	-906.51068	436.34854	672.56543	-935.10333	211.40106	251.35771	196.21997	155.99557	243.94705	-2023.8547	276.55048	35.924591	-1345.4984	117.43713	43.062111	-1457.2825	185.39159	29.344921	-1503.506	146.99014	41.703167	-1485.6604	309.34546	45.101772	-492.13962	144.75735	49.165615	-395.55124	209.1852	30.542007	-347.32205	170.11409	46.123985	-365.43375	249.10611	74.595337	-500.08917	291.26544	70.930199	-430.84225	296.44461	210.81323	-459.04669	276.76337	272.39249	-448.60788	312.59589	269.46857	-484.71951	302.69318	309.12	-483.06876	225.7317	68.45237	-1346.8203	270.8121	71.087532	-1409.0072	236.73398	316.04794	-1401.8567	278.92722	307.23242	-1375.7915	252.08051	252.80037	-1400.8899	449.2135	565.46143	-1137.1094	348.39056	532.79987	-1234.1993	371.05051	487.29907	-1240.2697	401.6149	525.69977	-1196.1638	468.96188	563.12787	-733.21722	395.01544	492.81119	-630.59363	366.1398	535.867	-627.57202	412.40878	540.09167	-673.25061	-170.64249	965.80499	-823.8775	-84.10733	1038.0834	-836.31726	-68.148285	1034.5537	-960.12189	73.255302	920.33643	-908.85596	390.18875	708.39746	-930.72943	38.480114	783.78571	-913.55414	83.062569	839.14062	-739.45667	35.097588	825.80078	-1063.3783	141.15218	308.72879	-690.29053	136.0535	305.45316	-650.1637	160.29297	222.21646	-714.8963	126.97378	305.50269	-1146.7244	119.68993	302.04749	-1193.5381	148.6077	217.69846	-1128.9081	93.163864	614.6748	-710.47815	121.83184	595.85663	-674.5943	105.10773	671.36829	-691.07117	72.543335	575.43414	-1095.8021	68.141846	650.38062	-1122.5574	81.88765	592.54492	-1141.7343
1045	5.22	452.81049	663.54553	-964.33203	454.14609	666.50519	-906.44824	436.7598	671.37305	-935.33783	211.37857	251.35406	196.20207	155.84567	243.92036	-2023.8798	276.5278	35.967903	-1345.5322	117.43265	43.074013	-1457.3326	184.8824	29.628086	-1503.7378	147.00804	41.715336	-1485.7086	309.34259	45.104477	-492.10938	144.77115	49.16077	-395.52881	209.19363	30.534624	-347.30115	170.13084	46.122192	-365.41028	249.07391	74.614754	-500.03171	291.31647	70.944557	-430.71735	296.25458	210.79042	-459.0455	276.57251	272.38812	-448.57651	312.25116	269.51077	-484.71756	302.466	309.14114	-483.05237	225.69969	68.50238	-1346.9021	270.78656	71.093803	-1409.1011	235.70161	316.2785	-1402.1387	278.38251	307.17249	-1375.7468	251.85513	252.79749	-1401.1281	449.13428	564.33356	-1137.1266	348.32083	532.20862	-1234.3053	370.86646	486.62045	-1240.4058	401.50821	524.8446	-1196.2432	468.83316	561.91711	-733.26428	394.64914	492.03922	-630.62268	365.93021	535.19073	-627.62506	412.19647	539.18726	-673.3335	-168.2636	968.9436	-824.06165	-80.515617	1039.9229	-836.21478	-64.55146	1036.3013	-960.10889	74.897522	920.76501	-908.94958	390.61197	707.34729	-930.77509	39.235874	784.44336	-913.53931	84.380814	839.48071	-739.44421	36.176975	826.24072	-1063.4297	141.2007	308.83414	-690.30194	136.10422	305.58328	-650.18726	160.2076	222.24265	-714.87238	126.966	305.59369	-1146.7053	119.65581	302.15186	-1193.5282	148.23409	217.68765	-1128.863	93.86132	614.89075	-710.40265	122.45966	596.02295	-674.60803	105.96897	671.57294	-691.00659	73.014099	575.65887	-1095.7089	68.687683	650.60773	-1122.4967	82.440201	592.72839	-1141.6165
1046	5.225	453.08496	662.23981	-964.37067	454.35629	665.10162	-906.59509	436.94257	670.03442	-935.23151	211.35419	251.34221	196.19708	155.68002	243.89711	-2023.8698	276.52252	35.96917	-1345.575	117.44799	43.064953	-1457.3737	184.91234	29.622004	-1503.757	147.01277	41.717323	-1485.7363	309.34225	45.111389	-492.06961	144.78957	49.174217	-395.526	209.19025	30.514517	-347.28207	170.1561	46.120953	-365.39261	249.04044	74.632027	-499.99078	291.27365	70.947098	-430.70718	296.16238	210.82199	-459.04156	276.37692	272.35413	-448.58041	312.00809	269.57709	-484.74945	302.19565	309.16113	-483.056	225.65106	68.546158	-1346.9293	270.76379	71.120949	-1409.1858	236.09181	315.96066	-1402.342	277.89008	306.89026	-1375.8523	251.49864	252.74828	-1401.3168	449.16302	563.26239	-1137.1494	348.32657	531.60468	-1234.4073	370.69638	485.91528	-1240.5082	401.24619	523.72797	-1196.0682	468.66818	560.74188	-733.3161	394.2626	491.26553	-630.58459	365.70444	534.55139	-627.68451	411.97525	538.30157	-673.40582	-165.84076	972.05304	-824.22888	-76.994766	1041.693	-836.20068	-60.933689	1038.0072	-960.11969	76.53772	921.15961	-909.03253	391.06503	706.26617	-930.80707	40.008305	785.09003	-913.52917	85.693993	839.78638	-739.44086	37.268642	826.68469	-1063.4982	141.21957	308.94742	-690.31134	136.1586	305.71976	-650.21155	160.10188	222.32936	-714.86884	126.98306	305.6929	-1146.6769	119.65375	302.25531	-1193.4985	148.09529	217.75491	-1128.8634	94.525917	615.10229	-710.41638	123.20945	596.15009	-674.63147	106.94068	671.79846	-690.97925	73.503624	575.83368	-1095.6332	69.31662	650.8053	-1122.4296	82.834091	592.88617	-1141.5829
1047	5.23	453.37552	660.98401	-964.396	454.72015	663.88818	-906.51843	437.24884	668.81036	-935.25415	211.32448	251.3437	196.18947	155.46295	243.85291	-2023.8845	276.48749	35.992306	-1345.6107	117.45658	43.088528	-1457.3855	185.44182	29.308758	-1503.5862	147.03528	41.715065	-1485.7717	309.34186	45.108795	-492.01782	144.80264	49.167915	-395.50308	209.20386	30.511599	-347.27411	170.16725	46.122738	-365.37054	249.01569	74.640648	-499.95456	291.31586	70.924011	-430.59222	295.97379	210.80489	-459.11298	276.18777	272.36133	-448.58377	311.84491	269.58295	-484.75809	301.93033	309.17804	-483.04559	225.62045	68.596466	-1346.9906	270.74207	71.122383	-1409.2566	235.1376	316.17435	-1402.5856	278.00439	306.8902	-1376.6506	250.53406	252.59184	-1401.1558	449.16232	562.1582	-1137.1011	348.39102	530.98425	-1234.5206	370.54874	485.18195	-1240.5435	401.18954	522.94397	-1196.094	468.50381	559.56036	-733.34631	393.89429	490.54227	-630.60052	365.4505	533.86829	-627.76483	411.7081	537.4306	-673.48492	-163.34494	975.14935	-824.37708	-73.444427	1043.4108	-836.18652	-57.312908	1039.6892	-960.13629	78.175385	921.55731	-909.13037	391.50574	705.21704	-930.83496	40.78067	785.71979	-913.5459	86.990128	840.16925	-739.46765	38.383411	827.13239	-1063.588	141.22765	309.07462	-690.33588	136.22087	305.85416	-650.23883	160.02003	222.34169	-714.88031	126.99108	305.79407	-1146.6454	119.65034	302.38528	-1193.4746	147.9406	217.80208	-1128.8953	95.211525	615.32489	-710.38757	123.87257	596.2995	-674.66901	107.60535	671.95856	-690.98206	73.988174	576.03461	-1095.568	69.834198	650.99982	-1122.4719	83.370697	593.07269	-1141.5156
